<svg width="204" height="32" viewBox="0 0 204 32" fill="none" xmlns="http://www.w3.org/2000/svg">
<path d="M24.7129 25.9025C24.7129 26.1097 24.5053 26.3169 24.2976 26.7313C21.8055 29.6324 18.4828 31.083 14.3294 31.083C10.1759 31.083 6.6455 29.6324 3.94576 26.7313C1.4537 24.0375 0 20.5147 0 16.1631C0 12.0187 1.24603 8.4959 3.73809 5.80203C6.43783 2.90093 9.76058 1.24316 13.7063 1.24316C18.0674 1.24316 21.5979 2.48649 24.0899 5.18037C24.2976 5.38759 24.5053 5.80203 24.5053 6.00925C24.5053 6.21647 24.0899 7.25257 23.0516 8.91034C22.0132 10.5681 21.5979 11.397 21.1825 11.6042C20.9749 11.6042 20.9749 11.8114 20.7672 11.8114C20.7672 11.8114 20.3518 11.6042 19.7288 10.9826C19.1058 10.3609 18.2751 9.73923 17.6521 9.532C17.0291 9.32478 15.7831 8.91034 14.7447 8.91034C12.668 8.91034 11.2143 9.73923 9.96825 11.1898C8.92989 12.6403 8.30688 14.2981 8.30688 16.3703C8.30688 18.4425 8.92989 20.1003 9.96825 21.5508C11.2143 23.0014 12.668 23.8303 14.7447 23.8303C15.9907 23.8303 17.0291 23.623 18.0674 23.0014C18.6905 22.5869 19.5212 22.1725 20.1442 21.5508C20.7672 21.1364 20.9749 20.7219 21.1825 20.7219C21.3902 20.7219 21.3902 20.7219 21.5979 20.9292C21.8055 21.1364 22.4286 21.9653 23.4669 23.4158C24.2976 25.0736 24.7129 25.9025 24.7129 25.9025Z" fill="#3564B5"/>
<path d="M53.9959 16.3711C53.9959 20.5155 52.7499 24.0383 49.8425 26.9394C47.1428 29.8405 43.6124 31.291 39.4589 31.291C35.3055 31.291 31.775 29.8405 29.0753 26.9394C26.3756 24.0383 24.9219 20.5155 24.9219 16.3711C24.9219 12.2267 26.3756 8.70391 29.0753 5.80281C31.775 2.90172 35.3055 1.45117 39.4589 1.45117C43.6124 1.45117 47.1428 2.90172 49.8425 5.80281C52.5422 8.70391 53.9959 12.2267 53.9959 16.3711ZM46.3121 16.3711C46.3121 14.2989 45.6891 12.6411 44.443 11.1906C43.197 9.74002 41.5356 8.91113 39.4589 8.91113C37.5899 8.91113 35.9285 9.74002 34.6825 11.1906C33.4364 12.6411 32.8134 14.2989 32.8134 16.3711C32.8134 18.4433 33.4364 20.1011 34.6825 21.5516C35.9285 23.0022 37.5899 23.6238 39.6666 23.6238C41.5356 23.6238 43.197 22.7949 44.443 21.3444C45.6891 19.8938 46.3121 18.2361 46.3121 16.3711Z" fill="#3564B5"/>
<path d="M82.2376 16.1631C82.2376 20.1003 80.9916 23.6231 78.2919 26.5242C76.0075 29.218 72.8924 30.4614 68.7389 30.6686C67.9083 30.6686 65.8315 30.6686 62.3011 30.6686C61.6781 30.6686 60.6397 30.6686 59.3937 30.6686C58.1477 30.6686 57.1093 30.6686 56.4863 30.6686C56.071 30.6686 55.8633 30.4614 55.8633 30.2541C55.8633 28.8036 55.8633 26.5242 56.071 23.6231C56.2786 20.722 56.2786 18.4425 56.2786 16.992C56.2786 15.5414 56.2786 13.0548 56.071 9.94648C55.8633 6.83816 55.8633 4.55873 55.8633 2.90096C55.8633 2.69374 56.071 2.48652 56.4863 2.48652C57.5247 2.48652 58.9784 2.2793 61.2628 2.2793C65.4162 2.2793 68.1159 2.2793 69.362 2.48652C72.477 2.90096 75.1768 3.52263 76.8382 4.97317C78.4995 6.2165 79.9532 7.87427 80.9916 10.1537C81.8223 12.0187 82.2376 14.0909 82.2376 16.1631ZM74.3461 16.1631C74.3461 13.8837 73.7231 12.0187 72.2694 10.5681C70.8157 9.11759 69.1543 8.28871 66.8699 8.28871C64.7932 8.28871 63.7548 8.49593 63.7548 9.11759C63.7548 9.94648 63.7548 11.1898 63.7548 12.6403C63.7548 14.2981 63.7548 15.3342 63.7548 16.1631C63.7548 16.992 63.7548 18.0281 63.7548 19.6859C63.7548 21.3436 63.7548 22.3797 63.7548 23.2086C63.7548 23.8303 64.7932 24.0375 67.0776 24.0375C69.362 24.0375 71.231 23.2086 72.6847 21.7581C73.7231 20.5148 74.3461 18.6498 74.3461 16.1631Z" fill="#3564B5"/>
<path d="M104.877 24.2445C104.877 24.8662 104.669 25.9023 104.461 27.3529C104.254 29.0106 104.046 30.0467 103.838 30.4612C103.631 30.6684 103.423 30.8756 103.215 30.8756C103.008 30.8756 102.8 30.8756 102.592 30.8756C101.554 30.6684 98.6464 30.6684 93.87 30.6684C92.8316 30.6684 91.1702 30.6684 89.3012 30.6684C87.2245 30.6684 85.7707 30.6684 84.7324 30.6684C84.317 30.6684 84.1094 30.4612 84.1094 30.0467C84.1094 28.5962 84.1094 26.3168 84.317 23.2084C84.5247 20.1001 84.5247 17.8207 84.5247 16.3701C84.5247 14.9196 84.5247 12.0185 84.317 7.87408C84.317 6.83797 84.1094 5.1802 84.1094 3.10799V2.90077C84.1094 2.69355 84.317 2.48633 84.5247 2.48633C85.5631 2.48633 87.0168 2.48633 89.0935 2.48633C91.1702 2.48633 92.6239 2.48633 93.6623 2.48633C94.7006 2.48633 96.1543 2.48633 98.2311 2.48633C100.308 2.48633 101.761 2.48633 102.8 2.48633C103.423 2.48633 103.838 2.69355 104.046 3.31521C104.046 3.52243 104.254 4.55854 104.254 6.21631C104.461 7.87408 104.461 8.70296 104.461 9.1174C104.461 9.32462 104.254 9.53184 104.046 9.53184C104.046 9.53184 103.838 9.53184 103.631 9.53184C100.1 9.32462 96.7774 9.1174 93.87 9.1174C93.2469 9.1174 92.6239 9.32462 92.6239 9.53184C92.6239 9.73906 92.6239 10.1535 92.6239 10.9824C92.6239 11.8113 92.8316 12.4329 93.0393 12.8474C93.2469 13.0546 93.6623 13.2618 94.2853 13.2618C94.493 13.2618 94.7006 13.2618 95.116 13.2618C95.5313 13.2618 95.739 13.2618 96.1543 13.2618C97.8157 13.2618 99.6848 13.2618 101.346 13.0546C101.554 13.0546 101.761 13.0546 102.385 13.0546C102.8 13.0546 103.215 13.0546 103.423 13.0546C103.838 13.0546 103.838 13.2618 103.838 13.469C103.838 13.2618 103.631 14.2979 103.423 16.5774C103.215 17.6135 103.215 18.6496 103.215 19.8929C103.215 20.1001 103.008 20.3073 102.592 20.3073C102.592 20.3073 101.969 20.3073 100.723 20.1001C99.8924 20.1001 98.2311 19.8929 95.5313 19.8929H93.4546C92.8316 19.8929 92.6239 20.1001 92.4163 20.3073C92.4163 20.3073 92.4163 20.7218 92.4163 21.5507C92.4163 22.5868 92.4163 23.2084 92.6239 23.6229C92.8316 24.0373 93.6623 24.4518 95.3237 24.4518C95.3237 24.4518 96.362 24.4518 98.2311 24.4518C98.8541 24.4518 100.1 24.4518 101.346 24.2445C102.8 24.0373 103.838 24.0373 104.461 24.0373C104.669 23.6229 104.877 23.8301 104.877 24.2445Z" fill="#3564B5"/>
<path d="M181.711 24.866C181.711 25.4877 181.504 26.5238 181.296 27.9743C181.088 29.6321 180.881 30.461 180.673 30.8754C180.465 31.0827 180.258 31.2899 180.05 31.2899C179.842 31.2899 179.635 31.2899 179.427 31.2899C178.388 31.0827 175.689 31.0827 171.12 31.0827C170.082 31.0827 168.628 31.0827 166.551 31.0827C164.474 31.0827 163.021 31.0827 161.982 31.0827C161.567 31.0827 161.359 30.8754 161.359 30.461C161.359 29.0105 161.359 26.731 161.567 23.8299C161.775 20.9288 161.775 18.6494 161.775 17.1989C161.775 15.7483 161.775 13.0544 161.567 8.91002C161.567 7.87391 161.359 6.42336 161.359 4.35115V4.14394C161.359 3.93671 161.567 3.72949 161.775 3.72949C162.813 3.72949 164.267 3.72949 166.136 3.72949C168.005 3.72949 169.459 3.72949 170.497 3.72949C171.535 3.72949 172.989 3.72949 174.858 3.72949C176.727 3.72949 178.181 3.72949 179.219 3.72949C179.842 3.72949 180.258 3.93671 180.465 4.55838C180.465 4.7656 180.673 5.8017 180.673 7.25225C180.881 8.7028 180.881 9.7389 180.881 9.94612C180.881 10.1533 180.673 10.3606 180.465 10.3606C180.465 10.3606 180.258 10.3606 180.05 10.3606C176.519 10.1533 173.404 9.94612 170.705 9.94612C170.082 9.94612 169.666 10.1533 169.459 10.3606C169.459 10.5678 169.459 10.9822 169.459 11.8111C169.459 12.64 169.666 13.2617 169.874 13.4689C170.082 13.6761 170.497 13.8833 171.12 13.8833C171.328 13.8833 171.535 13.8833 171.951 13.8833C172.366 13.8833 172.574 13.8833 172.989 13.8833C174.65 13.8833 176.312 13.8833 177.973 13.6761C178.181 13.6761 178.388 13.6761 179.011 13.6761C179.427 13.6761 179.842 13.6761 180.05 13.6761C180.465 13.6761 180.465 13.8833 180.465 14.0905C180.465 13.8833 180.258 14.7122 180.05 16.9916C180.05 18.0277 179.842 19.0638 179.842 20.1C179.842 20.3072 179.634 20.5144 179.219 20.5144C179.219 20.5144 178.596 20.5144 177.35 20.3072C176.519 20.3072 174.858 20.1 172.158 20.1H170.082C169.459 20.1 169.251 20.3072 169.043 20.5144C169.043 20.5144 169.043 20.9288 169.043 21.7577C169.043 22.7938 169.043 23.4155 169.251 23.6227C169.459 24.0371 170.289 24.4516 171.743 24.4516C171.743 24.4516 172.574 24.4516 174.65 24.4516C175.273 24.4516 176.312 24.4516 177.765 24.2444C179.219 24.0371 180.258 24.0371 180.881 24.0371C181.711 24.0371 181.711 24.2444 181.711 24.866Z" fill="#4079DA"/>
<path d="M203.52 9.94612C203.52 10.1533 203.313 10.1533 203.105 10.1533C202.067 10.1533 200.613 10.1533 198.536 9.94612C196.46 9.7389 195.006 9.7389 193.968 9.7389C192.722 9.7389 191.891 9.7389 191.683 9.94612C191.268 10.1533 191.06 10.775 191.06 11.8111C191.06 13.0544 191.475 13.6761 192.099 13.8833C192.306 13.8833 192.722 13.8833 193.345 13.8833C194.175 13.8833 195.629 13.8833 197.498 13.6761C199.367 13.6761 200.613 13.4689 201.651 13.4689C202.067 13.4689 202.274 14.505 202.274 16.9916C202.274 19.0638 202.274 20.0999 202.067 20.5144C202.067 20.7216 201.859 20.9288 201.444 20.9288C201.651 20.9288 201.236 20.9288 200.198 20.7216C198.744 20.5144 196.667 20.5144 193.76 20.5144C192.929 20.5144 192.306 20.5144 192.099 20.5144C191.475 20.5144 191.06 20.9288 191.06 21.3433C191.06 23.2083 191.06 25.2805 191.268 27.7671C191.475 29.8393 191.475 30.8754 191.475 30.6682C191.475 31.0827 191.06 31.2899 190.229 31.2899C190.437 31.2899 189.814 31.2899 188.568 31.2899C186.076 31.2899 184.622 31.2899 183.792 31.0827C183.376 31.0827 183.169 30.8754 183.169 30.461C183.169 29.0105 183.169 26.9382 183.376 24.0371C183.376 21.1361 183.584 19.0638 183.584 17.6133C183.584 15.9555 183.584 13.6761 183.376 11.1894C183.169 7.25225 182.961 4.97282 182.961 4.7656V4.55838C182.961 4.14393 183.169 4.14394 183.584 4.14394C184.622 4.14394 186.076 4.14394 187.945 4.14394C189.814 4.14394 191.475 4.14394 192.306 4.14394C193.345 4.14394 195.006 4.14393 197.083 3.93671C199.159 3.72949 200.821 3.72949 201.859 3.72949C202.482 3.72949 202.897 3.93671 202.897 4.55838C202.897 5.18004 202.897 6.00892 202.897 7.04503C202.897 7.25225 202.897 7.87391 203.105 8.70279C203.52 8.91002 203.52 9.53168 203.52 9.94612Z" fill="#4079DA"/>
<path d="M106.744 10.5683C105.498 14.5055 105.913 18.4427 107.575 22.3799C109.444 26.5243 112.143 29.4254 115.674 30.8759C119.412 32.5337 123.15 32.3265 127.304 30.4615C131.249 28.5965 133.741 25.6954 134.78 21.9654C134.78 21.7582 134.78 21.551 134.78 21.551C134.572 21.3438 133.949 20.9293 132.495 19.8932C130.834 18.8571 130.211 18.4427 129.796 18.2354C129.796 18.4427 129.588 18.6499 129.38 19.0643C128.965 20.1004 128.342 20.9293 127.719 21.551C126.888 22.5871 125.85 23.416 124.396 24.0376C122.319 25.0737 120.035 25.0737 117.958 23.8304C116.089 22.7943 114.636 21.1365 113.597 19.0643C112.559 16.7849 112.351 14.7127 112.974 12.6405C113.597 10.361 114.843 8.70328 117.128 7.66717C118.374 7.04551 119.827 6.83829 121.073 6.83829C122.112 6.83829 122.942 7.04551 123.981 7.45995C124.396 7.66717 124.604 7.66717 124.811 7.66717C124.811 7.45995 125.019 6.63107 125.227 4.35164C125.434 2.07221 125.434 1.24332 125.434 1.24332C125.434 1.24332 125.227 1.0361 125.019 1.0361C123.565 0.414442 121.904 0 120.243 0C118.166 0 115.882 0.621661 113.597 1.65777C110.482 3.72998 107.99 6.63107 106.744 10.5683Z" fill="#4079DA"/>
<path d="M159.079 23.8313C158.872 20.9302 158.872 18.858 158.872 17.4074C158.872 15.9569 158.872 13.6775 159.079 10.5691C159.287 7.46083 159.287 5.38862 159.287 3.73085C159.287 3.52363 159.079 3.31641 158.664 3.31641C158.249 3.31641 157.626 3.31641 157.003 3.31641C156.172 3.31641 155.549 3.31641 155.341 3.31641C154.926 3.31641 154.303 3.31641 153.68 3.31641C152.849 3.31641 152.226 3.31641 152.019 3.31641C151.603 3.31641 151.603 3.52363 151.603 3.93807C151.603 4.97418 151.603 6.2175 151.811 8.28972C151.811 10.1547 152.019 11.6053 152.019 12.4341C152.019 12.8486 151.811 13.0558 151.603 13.263C151.188 13.263 149.527 13.4702 146.619 13.4702C143.504 13.4702 141.843 13.4702 141.635 13.263C141.427 13.263 141.22 12.8486 141.22 12.4341C141.22 11.398 141.22 9.94748 141.427 8.08249C141.635 6.2175 141.635 4.76696 141.635 3.73085C141.635 3.52363 141.427 3.31641 141.22 3.31641C140.804 3.31641 140.181 3.31641 139.351 3.31641C138.52 3.31641 137.897 3.31641 137.482 3.31641C137.066 3.31641 136.443 3.31641 135.613 3.31641C134.782 3.31641 134.159 3.31641 133.743 3.31641C133.536 3.31641 133.328 3.52363 133.328 3.73085C133.328 5.1814 133.328 7.46083 133.536 10.5691C133.743 13.6775 133.743 15.7497 133.743 17.4074C133.743 17.6147 133.743 18.0291 133.743 18.4435L133.951 18.6508C136.651 20.3085 136.651 20.5158 136.859 20.723C137.066 21.1374 137.066 21.5519 136.859 22.1735C136.236 24.6602 134.99 26.7324 133.328 28.3902C133.328 29.0118 133.328 29.4263 133.328 29.8407C133.328 30.2551 133.536 30.4624 133.951 30.4624C134.366 30.4624 135.613 30.6696 137.274 30.6696C139.351 30.6696 140.597 30.6696 141.012 30.4624C141.427 30.4624 141.635 30.2551 141.635 29.8407C141.635 28.8046 141.635 27.3541 141.635 25.2818C141.635 23.2096 141.635 21.7591 141.635 20.723C141.635 20.3085 141.843 19.8941 142.05 19.8941C142.466 19.8941 144.127 19.6869 146.827 19.6869C149.527 19.6869 151.188 19.6869 151.603 19.8941C151.811 19.8941 152.019 20.3085 152.019 20.723C152.019 21.7591 152.019 23.2096 151.811 25.2818C151.811 27.3541 151.603 28.8046 151.603 29.8407C151.603 30.0479 151.811 30.2552 152.226 30.4624C152.642 30.4624 153.888 30.6696 155.964 30.6696C157.418 30.6696 158.456 30.6696 159.287 30.4624C159.702 30.4624 159.702 30.4624 159.91 30.4624C160.118 30.4624 160.118 30.2551 160.118 30.0479C159.287 28.8046 159.079 26.7324 159.079 23.8313Z" fill="#4079DA"/>
</svg>
