<svg width="190" height="30" viewBox="0 0 190 30" fill="none" xmlns="http://www.w3.org/2000/svg">
<path d="M26.9359 8.69844C26.6969 7.37891 25.5578 6.41797 24.2359 6.11797C22.2578 5.69844 18.5969 5.39844 14.6359 5.39844C10.6773 5.39844 6.95781 5.69844 4.97734 6.11797C3.65781 6.41797 2.51641 7.31797 2.27734 8.69844C2.03594 10.1984 1.79688 12.2984 1.79688 14.9984C1.79688 17.6984 2.03594 19.7984 2.33594 21.2984C2.57734 22.618 3.71641 23.5789 5.03594 23.8789C7.13594 24.2984 10.7359 24.5984 14.6969 24.5984C18.6578 24.5984 22.2578 24.2984 24.3578 23.8789C25.6773 23.5789 26.8164 22.6789 27.0578 21.2984C27.2969 19.7984 27.5969 17.6375 27.6578 14.9984C27.5359 12.2984 27.2359 10.1984 26.9359 8.69844ZM11.3969 19.1984V10.7984L18.7164 14.9984L11.3969 19.1984Z" fill="white"/>
<path d="M43.2819 4.91992C41.4262 4.91992 39.9219 6.42424 39.9219 8.27992V21.7199C39.9219 23.5756 41.4262 25.0799 43.2819 25.0799H56.7219C58.5776 25.0799 60.0819 23.5756 60.0819 21.7199V8.27992C60.0819 6.42424 58.5776 4.91992 56.7219 4.91992H43.2819ZM44.2831 9.23992H48.0931L50.7987 13.0846L54.0819 9.23992H55.2819L51.3406 13.8543L56.2006 20.7599H52.3916L49.2519 16.2993L45.4419 20.7599H44.2419L48.71 15.5296L44.2831 9.23992ZM46.1206 10.1999L52.8922 19.7999H54.3631L47.5916 10.1999H46.1206Z" fill="white"/>
<path d="M89.6819 4.91992H74.3219C72.9971 4.91992 71.9219 5.99512 71.9219 7.31992V22.6799C71.9219 24.0047 72.9971 25.0799 74.3219 25.0799H89.6819C91.0067 25.0799 92.0819 24.0047 92.0819 22.6799V7.31992C92.0819 5.99512 91.0067 4.91992 89.6819 4.91992ZM78.1619 12.5999V21.7199H75.2819V12.5999H78.1619ZM75.2819 9.94552C75.2819 9.27352 75.8579 8.75992 76.7219 8.75992C77.5859 8.75992 78.1283 9.27352 78.1619 9.94552C78.1619 10.6175 77.6243 11.1599 76.7219 11.1599C75.8579 11.1599 75.2819 10.6175 75.2819 9.94552ZM88.7219 21.7199H85.8419C85.8419 21.7199 85.8419 17.2751 85.8419 16.9199C85.8419 15.9599 85.3619 14.9999 84.1619 14.9807H84.1235C82.9619 14.9807 82.4819 15.9695 82.4819 16.9199C82.4819 17.3567 82.4819 21.7199 82.4819 21.7199H79.6019V12.5999H82.4819V13.8287C82.4819 13.8287 83.4083 12.5999 85.2707 12.5999C87.1763 12.5999 88.7219 13.9103 88.7219 16.5647V21.7199Z" fill="white"/>
<path d="M121.682 4.91992H106.322C104.997 4.91992 103.922 5.99512 103.922 7.31992V22.6799C103.922 24.0047 104.997 25.0799 106.322 25.0799H121.682C123.007 25.0799 124.082 24.0047 124.082 22.6799V7.31992C124.082 5.99512 123.007 4.91992 121.682 4.91992ZM119.762 12.1199H118.802C117.775 12.1199 117.362 12.3599 117.362 13.0799V14.5199H119.762L119.282 16.9199H117.362V24.1199H114.962V16.9199H113.042V14.5199H114.962V13.0799C114.962 11.1599 115.922 9.71992 117.842 9.71992C119.234 9.71992 119.762 10.1999 119.762 10.1999V12.1199Z" fill="white"/>
<path d="M141.677 4.43945C138.236 4.43945 135.438 7.23785 135.438 10.6795V19.3195C135.438 22.7611 138.236 25.5595 141.677 25.5595H150.318C153.759 25.5595 156.557 22.7611 156.557 19.3195V10.6795C156.557 7.23785 153.759 4.43945 150.318 4.43945H141.677ZM151.757 8.27945C152.285 8.27945 152.717 8.71145 152.717 9.23945C152.717 9.76745 152.285 10.1995 151.757 10.1995C151.229 10.1995 150.797 9.76745 150.797 9.23945C150.797 8.71145 151.229 8.27945 151.757 8.27945ZM145.997 9.71945C148.911 9.71945 151.277 12.0859 151.277 14.9995C151.277 17.9131 148.911 20.2795 145.997 20.2795C143.084 20.2795 140.717 17.9131 140.717 14.9995C140.717 12.0859 143.084 9.71945 145.997 9.71945ZM145.997 10.6795C143.617 10.6795 141.677 12.6187 141.677 14.9995C141.677 17.3803 143.617 19.3195 145.997 19.3195C148.378 19.3195 150.318 17.3803 150.318 14.9995C150.318 12.6187 148.378 10.6795 145.997 10.6795Z" fill="white"/>
<path d="M187.602 4.91992H168.402C168.137 4.91992 167.922 5.13496 167.922 5.39992V24.5999C167.922 24.8649 168.137 25.0799 168.402 25.0799H187.602C187.867 25.0799 188.082 24.8649 188.082 24.5999V5.39992C188.082 5.13496 187.867 4.91992 187.602 4.91992ZM185.202 9.47992L184.328 10.5345C184.273 10.5892 184.242 10.6631 184.242 10.7399V18.7199C184.242 18.7967 184.273 18.8706 184.328 18.9254L185.202 20.062V20.2799H180.402V20.062L181.756 18.9254C181.811 18.8706 181.842 18.7967 181.842 18.7199V11.5818L177.929 20.2799H177.188L173.202 11.8199V18.1118C173.202 18.2174 173.238 18.3196 173.305 18.4022L174.642 20.062V20.2799H170.802V20.062L172.138 18.4118C172.205 18.3292 172.242 18.226 172.242 18.1199V10.8662C172.242 10.798 172.218 10.7322 172.174 10.6799L171.282 9.47992V9.23992H174.688L178.348 17.0078L181.843 9.23992H185.202V9.47992Z" fill="white"/>
</svg>
